<svg id="visual" viewBox="0 0 64 64" width="64" height="64" xmlns="http://www.w3.org/2000/svg" xmlns:xlink="http://www.w3.org/1999/xlink" version="1.1"><rect width="64" height="64" fill="#f1648a"></rect><g><g transform="translate(49 15)"><path d="M8.9 -5.2C10.5 -2.4 10.1 1.6 8.3 4.5C6.4 7.5 3.2 9.3 -0.2 9.4C-3.5 9.5 -7.1 7.8 -8.8 5C-10.4 2.1 -10.3 -1.9 -8.5 -4.8C-6.7 -7.8 -3.4 -9.7 0.1 -9.8C3.6 -9.9 7.3 -8.1 8.9 -5.2Z" fill="none" stroke="#ffcccc" stroke-width="5"></path></g><g transform="translate(42 50)"><path d="M4.7 -2.7C5.7 -1 5.8 1.2 4.9 2.8C4 4.5 2 5.5 0.1 5.4C-1.7 5.3 -3.5 4.2 -4.6 2.4C-5.7 0.7 -6.2 -1.6 -5.4 -3.2C-4.5 -4.8 -2.2 -5.7 -0.2 -5.6C1.9 -5.5 3.7 -4.4 4.7 -2.7Z" fill="none" stroke="#ffcccc" stroke-width="5"></path></g><g transform="translate(6 10)"><path d="M4.5 -2.5C5.4 -1 5.5 1.1 4.6 2.7C3.7 4.2 1.9 5.1 0.1 5C-1.7 5 -3.4 4 -4.4 2.4C-5.3 0.8 -5.6 -1.3 -4.7 -2.8C-3.9 -4.3 -1.9 -5.2 -0.1 -5.1C1.8 -5.1 3.6 -4.1 4.5 -2.5Z" fill="none" stroke="#ffcccc" stroke-width="5"></path></g><g transform="translate(25 29)"><path d="M3.4 -2C4.1 -0.8 4.1 0.8 3.4 2C2.8 3.2 1.4 4.1 -0.2 4.2C-1.7 4.3 -3.4 3.6 -4.2 2.3C-5 1 -4.9 -0.9 -4 -2.2C-3.2 -3.5 -1.6 -4.3 -0.1 -4.2C1.4 -4.1 2.7 -3.2 3.4 -2Z" stroke="#ffcccc" fill="none" stroke-width="5"></path></g><g transform="translate(13 52)"><path d="M4.3 -2.4C5.2 -0.9 5.3 1.1 4.5 2.7C3.6 4.4 1.8 5.6 -0.1 5.7C-2 5.7 -4 4.6 -4.9 2.9C-5.8 1.3 -5.6 -0.9 -4.6 -2.5C-3.6 -4 -1.8 -4.9 0 -4.9C1.7 -4.9 3.4 -3.9 4.3 -2.4Z" stroke="#ffcccc" fill="none" stroke-width="5"></path></g></g></svg>